<?xml version="1.0" standalone="no"?>
<!DOCTYPE svg PUBLIC "-//W3C//DTD SVG 20010904//EN"
 "http://www.w3.org/TR/2001/REC-SVG-20010904/DTD/svg10.dtd">
<svg version="1.0" xmlns="http://www.w3.org/2000/svg"
 width="575.000000pt" height="575.000000pt" viewBox="0 0 575.000000 575.000000"
 preserveAspectRatio="xMidYMid meet">
<metadata>
Created by potrace 1.11, written by Peter Selinger 2001-2013
</metadata>
<g transform="translate(0.000000,575.000000) scale(0.100000,-0.100000)"
fill="#000000" stroke="none">
<path d="M3305 5530 c-3 -5 -36 -30 -73 -54 -37 -25 -89 -61 -117 -81 -27 -19
-75 -53 -105 -75 l-55 -39 -1 -630 0 -630 30 -3 c17 -2 76 0 131 3 79 4 110
10 141 28 75 42 73 19 73 801 0 380 -5 690 -9 690 -5 0 -12 -4 -15 -10z"/>
<path d="M2839 5205 c-19 -14 -81 -58 -139 -98 l-105 -72 -1 -508 -1 -507 36
-1 c87 -1 246 3 249 6 6 5 2 1205 -3 1205 -1 0 -17 -11 -36 -25z"/>
<path d="M2485 4958 c-30 -20 -92 -111 -109 -158 -4 -14 -9 -195 -10 -402 l-2
-377 69 -3 c38 -2 74 0 79 3 10 6 16 945 7 953 -2 2 -17 -5 -34 -16z"/>
<path d="M3361 4035 c-11 -19 -25 -35 -31 -35 -6 0 -9 -4 -6 -9 3 -5 -15 -17
-41 -27 -44 -16 -112 -18 -853 -20 -591 -1 -817 -5 -850 -14 -108 -29 -167
-83 -284 -262 -42 -65 -79 -123 -81 -130 -4 -10 156 -13 814 -12 l819 0 64 39
c35 21 92 67 127 102 35 34 68 63 73 63 4 0 8 4 8 8 0 4 54 62 120 127 89 90
124 131 134 163 18 51 15 53 -13 7z"/>
<path d="M3435 3951 c-36 -17 -53 -32 -128 -111 -13 -14 -47 -47 -75 -73 -29
-26 -52 -50 -52 -53 0 -3 -30 -33 -66 -67 -66 -62 -121 -135 -145 -192 -10
-23 -13 -330 -15 -1398 -1 -752 0 -1367 2 -1367 9 0 202 130 260 175 86 66
117 112 141 206 3 13 7 627 8 1364 1 737 5 1360 9 1384 9 55 29 86 80 122 45
33 38 37 -19 10z"/>
<path d="M3667 3913 c-1 -1 -25 -4 -52 -6 -107 -10 -124 -20 -157 -94 -19 -44
-24 -118 -19 -270 1 -17 36 -18 609 -17 334 1 612 2 619 3 6 1 41 45 78 99 37
53 86 125 111 160 24 35 44 67 44 71 0 5 7 14 15 21 8 7 15 16 15 20 0 4 -127
8 -282 9 -156 1 -440 2 -631 4 -192 1 -349 1 -350 0z"/>
<path d="M2813 3472 c-29 -16 -98 -17 -846 -17 l-814 0 -27 -37 c-14 -20 -26
-41 -26 -47 0 -6 -4 -11 -8 -11 -8 0 -66 -84 -114 -167 l-19 -32 758 3 c417 2
767 7 778 11 48 19 131 88 241 197 65 65 116 118 114 118 -3 -1 -19 -9 -37
-18z"/>
<path d="M3447 3448 c-11 -6 -14 -258 -4 -275 4 -6 936 -10 968 -4 4 0 22 25
40 54 19 28 39 57 45 62 12 10 115 164 111 166 -9 5 -1151 3 -1160 -3z"/>
<path d="M2892 3446 c7 -9 -14 -37 -61 -80 -116 -107 -216 -231 -231 -285 -7
-26 -9 -467 -8 -1344 l3 -1306 54 34 c30 19 67 46 82 60 16 14 33 25 39 25 5
0 10 5 10 10 0 6 4 10 10 10 5 0 27 12 48 27 l38 27 1 1356 c1 1176 3 1382 13
1410 2 3 2 9 1 14 -1 4 3 14 9 21 8 10 7 15 -2 21 -7 4 -10 4 -6 0z"/>
<path d="M2420 3105 c-28 -11 -179 -13 -755 -10 -396 3 -729 2 -741 -1 -18 -5
-114 -134 -114 -153 0 -4 325 -6 723 -6 l722 1 48 28 c55 32 189 156 167 155
-8 -1 -31 -7 -50 -14z"/>
<path d="M3437 3084 c-3 -4 -2 -14 3 -23 5 -10 5 -23 1 -29 -4 -7 -5 -31 -2
-55 l6 -42 365 0 365 0 51 33 c45 28 124 103 124 116 0 8 -905 7 -913 0z"/>
<path d="M2494 3026 c-28 -28 -62 -67 -75 -86 -57 -80 -54 0 -55 -1375 0 -698
1 -1275 4 -1282 2 -7 33 8 78 39 l74 50 0 197 c1 2042 3 2442 17 2468 23 45
10 42 -43 -11z"/>
</g>
</svg>
